<?xml version="1.0" encoding="UTF-8"?>
<svg id="Calque_1" data-name="Calque 1" xmlns="http://www.w3.org/2000/svg" viewBox="0 0 459.57 428.94">
  <defs>
    <style>
      .cls-1 {
        fill: #efece6;
      }

      .cls-2 {
        fill: #0b0b0b;
      }
    </style>
  </defs>
  <rect class="cls-2" width="459.57" height="428.94"/>
  <path class="cls-1" d="M221.31,68.78h8.74v34.43h8.22v8.74h-8.22v8.22h8.22v25.69h8.74v8.74h16.96v-8.74h17.47v-8.22h8.22v8.22h-8.22v17.47h-8.74v16.96h16.96v8.74h17.47v8.22h42.65v8.74h25.69v8.74h-60.12v8.22h-8.22v-8.22h-8.74v8.22h-25.69v17.47h8.74v16.96h8.22v8.74h8.74v16.96h-8.74v-8.74h-8.22v-8.22h-17.47v-8.74h-16.96v8.74h-8.74v8.22h8.74v8.74h-8.74v42.65h-8.22v8.74h8.22v8.74h-8.22v16.96h-8.74v-34.43h-8.74v-8.22h8.74v-8.74h-8.74v-34.43h-8.22v-25.69h-8.74v8.74h-16.96v8.74h-8.74v8.22h-8.74v8.74h-8.22v-8.74h8.22v-16.96h8.74v-34.43h-8.74v-8.22h-25.69v-8.74h-8.22v8.74h-8.74v-8.74h-8.74v8.74h-8.22v-8.74h-17.47v-8.74h34.43v-8.22h34.43v-8.74h16.96v-25.69h-8.74v-16.96h8.74v8.22h16.96v8.74h17.47v-8.74h8.22v-25.69h8.74v-8.22h-8.74v-8.74h8.74v-34.43ZM204.35,180.29h0v8.74h-8.74v8.22h-8.74v17.47h-8.22v8.22h8.22v8.74h17.47v-16.96h16.96v-17.47h8.74v-8.22h-17.47v-8.74h-8.22Z"/>
</svg>