<svg width="4566.666666666667" height="2500" xmlns="http://www.w3.org/2000/svg"><desc>Traced by BDFM https://bitmap.designfamilymarket.com/</desc><path d="M 0 0 L 0 0 L 4567 0 L 4567 2500 L 0 2500 L 0 0 Z M 1550 33 L 1550 33 L 1550 100 L 1533 100 L 1533 117 L 1550 117 L 1550 133 L 1533 133 L 1533 183 L 1517 183 L 1517 200 L 1483 200 L 1483 183 L 1450 183 L 1450 167 L 1433 167 L 1433 200 L 1450 200 L 1450 250 L 1417 250 L 1417 267 L 1350 267 L 1350 283 L 1283 283 L 1283 300 L 1317 300 L 1317 317 L 1333 317 L 1333 300 L 1350 300 L 1350 317 L 1367 317 L 1367 300 L 1383 300 L 1383 317 L 1433 317 L 1433 333 L 1450 333 L 1450 400 L 1433 400 L 1433 433 L 1450 433 L 1450 417 L 1467 417 L 1467 400 L 1500 400 L 1500 383 L 1517 383 L 1517 433 L 1533 433 L 1533 500 L 1550 500 L 1550 517 L 1533 517 L 1533 533 L 1550 533 L 1550 600 L 1567 600 L 1567 567 L 1583 567 L 1583 550 L 1567 550 L 1567 533 L 1583 533 L 1583 450 L 1600 450 L 1600 433 L 1583 433 L 1583 417 L 1600 417 L 1600 400 L 1633 400 L 1633 417 L 1667 417 L 1667 433 L 1683 433 L 1683 450 L 1700 450 L 1700 417 L 1683 417 L 1683 400 L 1667 400 L 1667 367 L 1650 367 L 1650 333 L 1700 333 L 1700 317 L 1717 317 L 1717 333 L 1733 333 L 1733 317 L 1850 317 L 1850 300 L 1800 300 L 1800 283 L 1717 283 L 1717 267 L 1683 267 L 1683 250 L 1650 250 L 1650 217 L 1667 217 L 1667 183 L 1633 183 L 1633 200 L 1600 200 L 1600 183 L 1583 183 L 1583 133 L 1567 133 L 1567 117 L 1583 117 L 1583 100 L 1567 100 L 1567 33 L 1550 33 Z M 1667 167 L 1667 167 L 1667 183 L 1683 183 L 1683 167 L 1667 167 Z M 1417 433 L 1417 433 L 1417 450 L 1433 450 L 1433 433 L 1417 433 Z M 1350 700 L 1350 700 L 1350 733 L 1383 733 L 1383 750 L 1433 750 L 1433 767 L 1483 767 L 1483 783 L 1500 783 L 1500 800 L 1567 800 L 1567 817 L 1583 817 L 1583 833 L 1600 833 L 1600 850 L 1633 850 L 1633 867 L 1650 867 L 1650 883 L 1667 883 L 1667 900 L 1683 900 L 1683 917 L 1717 917 L 1717 933 L 1733 933 L 1733 950 L 1750 950 L 1750 967 L 1767 967 L 1767 983 L 1800 983 L 1800 1000 L 1833 1000 L 1833 1017 L 1850 1017 L 1850 1033 L 1883 1033 L 1883 1050 L 1900 1050 L 1900 1067 L 1917 1067 L 1917 1083 L 1933 1083 L 1933 1100 L 1950 1100 L 1950 1117 L 1983 1117 L 1983 1133 L 2017 1133 L 2017 1150 L 2050 1150 L 2050 1167 L 2100 1167 L 2100 1183 L 2017 1183 L 2017 1167 L 2000 1167 L 2000 1183 L 1950 1183 L 1950 1200 L 1933 1200 L 1933 1183 L 1883 1183 L 1883 1167 L 1850 1167 L 1850 1150 L 1633 1150 L 1633 1167 L 1617 1167 L 1617 1150 L 1600 1150 L 1600 1183 L 1667 1183 L 1667 1200 L 1750 1200 L 1750 1217 L 1767 1217 L 1767 1200 L 1783 1200 L 1783 1217 L 1900 1217 L 1900 1233 L 1967 1233 L 1967 1250 L 1983 1250 L 1983 1233 L 2000 1233 L 2000 1250 L 2050 1250 L 2050 1267 L 2067 1267 L 2067 1250 L 2083 1250 L 2083 1267 L 2100 1267 L 2100 1250 L 2150 1250 L 2150 1233 L 2233 1233 L 2233 1217 L 2283 1217 L 2283 1200 L 2333 1200 L 2333 1183 L 2500 1183 L 2500 1167 L 2517 1167 L 2517 1150 L 2500 1150 L 2500 1100 L 2517 1100 L 2517 1083 L 2550 1083 L 2550 1067 L 2583 1067 L 2583 1050 L 2633 1050 L 2633 1033 L 2683 1033 L 2683 1017 L 2717 1017 L 2717 1033 L 2750 1033 L 2750 1050 L 2800 1050 L 2800 1067 L 2833 1067 L 2833 1083 L 2867 1083 L 2867 1100 L 2900 1100 L 2900 1117 L 2933 1117 L 2933 1133 L 2983 1133 L 2983 1150 L 3000 1150 L 3000 1133 L 3033 1133 L 3033 1083 L 3050 1083 L 3050 1033 L 3067 1033 L 3067 1017 L 3050 1017 L 3050 1000 L 3067 1000 L 3067 950 L 3083 950 L 3083 933 L 3050 933 L 3050 950 L 3033 950 L 3033 1000 L 3017 1000 L 3017 1050 L 2967 1050 L 2967 1067 L 2933 1067 L 2933 1050 L 2883 1050 L 2883 1033 L 2867 1033 L 2867 1017 L 2817 1017 L 2817 1000 L 2800 1000 L 2800 983 L 2750 983 L 2750 967 L 2733 967 L 2733 983 L 2717 983 L 2717 967 L 2667 967 L 2667 983 L 2633 983 L 2633 1000 L 2617 1000 L 2617 983 L 2600 983 L 2600 1000 L 2550 1000 L 2550 1017 L 2483 1017 L 2483 1033 L 2433 1033 L 2433 1050 L 2383 1050 L 2383 1067 L 2317 1067 L 2317 1083 L 2283 1083 L 2283 1100 L 2267 1100 L 2267 1083 L 2250 1083 L 2250 1100 L 2217 1100 L 2217 1083 L 2167 1083 L 2167 1067 L 2133 1067 L 2133 1050 L 2117 1050 L 2117 1033 L 2067 1033 L 2067 1017 L 2050 1017 L 2050 1000 L 2017 1000 L 2017 983 L 1983 983 L 1983 967 L 1950 967 L 1950 950 L 1917 950 L 1917 933 L 1900 933 L 1900 917 L 1850 917 L 1850 900 L 1833 900 L 1833 883 L 1800 883 L 1800 867 L 1767 867 L 1767 850 L 1750 850 L 1750 833 L 1700 833 L 1700 800 L 1667 800 L 1667 767 L 1583 767 L 1583 750 L 1500 750 L 1500 733 L 1433 733 L 1433 717 L 1367 717 L 1367 700 L 1350 700 Z M 4483 733 L 4483 733 L 4483 750 L 4433 750 L 4433 767 L 4417 767 L 4417 783 L 4383 783 L 4383 800 L 4367 800 L 4367 817 L 4333 817 L 4333 833 L 4317 833 L 4317 850 L 4300 850 L 4300 867 L 4267 867 L 4267 883 L 4250 883 L 4250 900 L 4233 900 L 4233 917 L 4200 917 L 4200 933 L 4183 933 L 4183 950 L 4150 950 L 4150 967 L 4133 967 L 4133 983 L 4100 983 L 4100 1000 L 4067 1000 L 4067 1017 L 4050 1017 L 4050 1033 L 4033 1033 L 4033 1050 L 4000 1050 L 4000 1067 L 3983 1067 L 3983 1083 L 3950 1083 L 3950 1100 L 3917 1100 L 3917 1117 L 3883 1117 L 3883 1133 L 3867 1133 L 3867 1150 L 3833 1150 L 3833 1167 L 3783 1167 L 3783 1183 L 3767 1183 L 3767 1167 L 3750 1167 L 3750 1183 L 3733 1183 L 3733 1167 L 3717 1167 L 3717 1183 L 3683 1183 L 3683 1200 L 3567 1200 L 3567 1217 L 3550 1217 L 3550 1200 L 3533 1200 L 3533 1217 L 3433 1217 L 3433 1233 L 3417 1233 L 3417 1217 L 3400 1217 L 3400 1233 L 3283 1233 L 3283 1250 L 3267 1250 L 3267 1233 L 3250 1233 L 3250 1250 L 3233 1250 L 3233 1233 L 3200 1233 L 3200 1200 L 3233 1200 L 3233 1183 L 3283 1183 L 3283 1167 L 3317 1167 L 3317 1150 L 3333 1150 L 3333 1133 L 3350 1133 L 3350 1117 L 3367 1117 L 3367 1100 L 3383 1100 L 3383 1083 L 3400 1083 L 3400 1067 L 3417 1067 L 3417 1050 L 3433 1050 L 3433 1017 L 3450 1017 L 3450 983 L 3467 983 L 3467 900 L 3450 900 L 3450 867 L 3433 867 L 3433 833 L 3400 833 L 3400 900 L 3383 900 L 3383 917 L 3367 917 L 3367 933 L 3317 933 L 3317 950 L 3300 950 L 3300 933 L 3267 933 L 3267 917 L 3250 917 L 3250 900 L 3217 900 L 3217 917 L 3233 917 L 3233 950 L 3250 950 L 3250 983 L 3233 983 L 3233 1017 L 3217 1017 L 3217 1033 L 3233 1033 L 3233 1050 L 3217 1050 L 3217 1067 L 3200 1067 L 3200 1050 L 3183 1050 L 3183 1067 L 3167 1067 L 3167 1083 L 3183 1083 L 3183 1100 L 3167 1100 L 3167 1117 L 3117 1117 L 3117 1083 L 3083 1083 L 3083 1133 L 3100 1133 L 3100 1167 L 3117 1167 L 3117 1183 L 3100 1183 L 3100 1167 L 3083 1167 L 3083 1183 L 3067 1183 L 3067 1167 L 3050 1167 L 3050 1183 L 3017 1183 L 3017 1200 L 3033 1200 L 3033 1233 L 3050 1233 L 3050 1283 L 3033 1283 L 3033 1300 L 3000 1300 L 3000 1317 L 2967 1317 L 2967 1333 L 2917 1333 L 2917 1350 L 2883 1350 L 2883 1367 L 2867 1367 L 2867 1350 L 2850 1350 L 2850 1367 L 2833 1367 L 2833 1350 L 2817 1350 L 2817 1367 L 2800 1367 L 2800 1350 L 2750 1350 L 2750 1333 L 2733 1333 L 2733 1317 L 2717 1317 L 2717 1300 L 2683 1300 L 2683 1317 L 2700 1317 L 2700 1333 L 2717 1333 L 2717 1383 L 2683 1383 L 2683 1400 L 2650 1400 L 2650 1417 L 2617 1417 L 2617 1433 L 2583 1433 L 2583 1450 L 2533 1450 L 2533 1467 L 2500 1467 L 2500 1483 L 2483 1483 L 2483 1467 L 2467 1467 L 2467 1483 L 2400 1483 L 2400 1500 L 2383 1500 L 2383 1483 L 2367 1483 L 2367 1500 L 2317 1500 L 2317 1517 L 2300 1517 L 2300 1500 L 2283 1500 L 2283 1517 L 2250 1517 L 2250 1500 L 2233 1500 L 2233 1517 L 2217 1517 L 2217 1500 L 2200 1500 L 2200 1517 L 2150 1517 L 2150 1500 L 2067 1500 L 2067 1483 L 2033 1483 L 2033 1467 L 2017 1467 L 2017 1483 L 2000 1483 L 2000 1500 L 2017 1500 L 2017 1517 L 2033 1517 L 2033 1533 L 2050 1533 L 2050 1550 L 1917 1550 L 1917 1567 L 1900 1567 L 1900 1550 L 1867 1550 L 1867 1567 L 1850 1567 L 1850 1550 L 1833 1550 L 1833 1567 L 1817 1567 L 1817 1550 L 1800 1550 L 1800 1567 L 1550 1567 L 1550 1583 L 1533 1583 L 1533 1567 L 1517 1567 L 1517 1583 L 1500 1583 L 1500 1567 L 1450 1567 L 1450 1550 L 1433 1550 L 1433 1517 L 1417 1517 L 1417 1500 L 1450 1500 L 1450 1483 L 1483 1483 L 1483 1467 L 1533 1467 L 1533 1450 L 1583 1450 L 1583 1433 L 1633 1433 L 1633 1417 L 1700 1417 L 1700 1400 L 1717 1400 L 1717 1417 L 1733 1417 L 1733 1400 L 1767 1400 L 1767 1367 L 1750 1367 L 1750 1383 L 1733 1383 L 1733 1367 L 1617 1367 L 1617 1350 L 1600 1350 L 1600 1367 L 1583 1367 L 1583 1350 L 1483 1350 L 1483 1333 L 1417 1333 L 1417 1317 L 1400 1317 L 1400 1333 L 1383 1333 L 1383 1317 L 1283 1317 L 1283 1300 L 1083 1300 L 1083 1317 L 1017 1317 L 1017 1333 L 1000 1333 L 1000 1317 L 983 1317 L 983 1333 L 867 1333 L 867 1350 L 833 1350 L 833 1367 L 783 1367 L 783 1383 L 750 1383 L 750 1400 L 717 1400 L 717 1417 L 683 1417 L 683 1433 L 650 1433 L 650 1450 L 617 1450 L 617 1467 L 600 1467 L 600 1483 L 567 1483 L 567 1500 L 533 1500 L 533 1517 L 500 1517 L 500 1533 L 483 1533 L 483 1550 L 450 1550 L 450 1567 L 417 1567 L 417 1583 L 383 1583 L 383 1600 L 367 1600 L 367 1617 L 350 1617 L 350 1600 L 333 1600 L 333 1617 L 317 1617 L 317 1633 L 233 1633 L 233 1650 L 217 1650 L 217 1633 L 200 1633 L 200 1650 L 167 1650 L 167 1633 L 150 1633 L 150 1650 L 117 1650 L 117 1633 L 100 1633 L 100 1650 L 83 1650 L 83 1667 L 67 1667 L 67 1700 L 50 1700 L 50 1683 L 33 1683 L 33 1717 L 117 1717 L 117 1733 L 133 1733 L 133 1750 L 217 1750 L 217 1767 L 267 1767 L 267 1750 L 283 1750 L 283 1767 L 333 1767 L 333 1750 L 350 1750 L 350 1767 L 367 1767 L 367 1750 L 383 1750 L 383 1767 L 400 1767 L 400 1750 L 417 1750 L 417 1767 L 433 1767 L 433 1750 L 500 1750 L 500 1733 L 533 1733 L 533 1717 L 550 1717 L 550 1700 L 583 1700 L 583 1683 L 617 1683 L 617 1667 L 650 1667 L 650 1650 L 700 1650 L 700 1633 L 733 1633 L 733 1617 L 767 1617 L 767 1600 L 817 1600 L 817 1583 L 867 1583 L 867 1567 L 900 1567 L 900 1550 L 950 1550 L 950 1533 L 983 1533 L 983 1517 L 1017 1517 L 1017 1500 L 1050 1500 L 1050 1483 L 1083 1483 L 1083 1467 L 1117 1467 L 1117 1450 L 1150 1450 L 1150 1433 L 1183 1433 L 1183 1417 L 1217 1417 L 1217 1400 L 1283 1400 L 1283 1417 L 1300 1417 L 1300 1433 L 1333 1433 L 1333 1450 L 1350 1450 L 1350 1467 L 1367 1467 L 1367 1483 L 1350 1483 L 1350 1500 L 1317 1500 L 1317 1517 L 1300 1517 L 1300 1533 L 1283 1533 L 1283 1567 L 1267 1567 L 1267 1617 L 1250 1617 L 1250 1650 L 1233 1650 L 1233 1700 L 1217 1700 L 1217 1750 L 1200 1750 L 1200 1783 L 1183 1783 L 1183 1833 L 1167 1833 L 1167 1883 L 1150 1883 L 1150 1917 L 1133 1917 L 1133 1950 L 1117 1950 L 1117 2000 L 1100 2000 L 1100 2033 L 1083 2033 L 1083 2067 L 1067 2067 L 1067 2083 L 1050 2083 L 1050 2133 L 1033 2133 L 1033 2167 L 1017 2167 L 1017 2200 L 1000 2200 L 1000 2217 L 983 2217 L 983 2250 L 950 2250 L 950 2267 L 933 2267 L 933 2283 L 917 2283 L 917 2300 L 883 2300 L 883 2317 L 867 2317 L 867 2333 L 850 2333 L 850 2350 L 833 2350 L 833 2367 L 800 2367 L 800 2400 L 767 2400 L 767 2417 L 750 2417 L 750 2433 L 717 2433 L 717 2467 L 733 2467 L 733 2450 L 750 2450 L 750 2467 L 767 2467 L 767 2450 L 817 2450 L 817 2467 L 833 2467 L 833 2450 L 867 2450 L 867 2433 L 900 2433 L 900 2417 L 917 2417 L 917 2433 L 983 2433 L 983 2417 L 1017 2417 L 1017 2433 L 1033 2433 L 1033 2417 L 1067 2417 L 1067 2400 L 1100 2400 L 1100 2383 L 1117 2383 L 1117 2367 L 1150 2367 L 1150 2350 L 1167 2350 L 1167 2300 L 1183 2300 L 1183 2250 L 1200 2250 L 1200 2233 L 1217 2233 L 1217 2200 L 1233 2200 L 1233 2167 L 1250 2167 L 1250 2133 L 1267 2133 L 1267 2117 L 1283 2117 L 1283 2083 L 1300 2083 L 1300 2050 L 1317 2050 L 1317 2017 L 1333 2017 L 1333 1983 L 1350 1983 L 1350 1950 L 1367 1950 L 1367 1917 L 1383 1917 L 1383 1883 L 1400 1883 L 1400 1833 L 1417 1833 L 1417 1800 L 1433 1800 L 1433 1783 L 1450 1783 L 1450 1767 L 1467 1767 L 1467 1750 L 1483 1750 L 1483 1733 L 1500 1733 L 1500 1717 L 1567 1717 L 1567 1700 L 1583 1700 L 1583 1717 L 1600 1717 L 1600 1700 L 1717 1700 L 1717 1683 L 1733 1683 L 1733 1700 L 1783 1700 L 1783 1683 L 1800 1683 L 1800 1700 L 1817 1700 L 1817 1683 L 1833 1683 L 1833 1700 L 1983 1700 L 1983 1717 L 2000 1717 L 2000 1700 L 2033 1700 L 2033 1717 L 2083 1717 L 2083 1700 L 2167 1700 L 2167 1683 L 2217 1683 L 2217 1667 L 2267 1667 L 2267 1650 L 2300 1650 L 2300 1633 L 2367 1633 L 2367 1617 L 2450 1617 L 2450 1600 L 2533 1600 L 2533 1583 L 2550 1583 L 2550 1600 L 2567 1600 L 2567 1583 L 2650 1583 L 2650 1567 L 2750 1567 L 2750 1550 L 2833 1550 L 2833 1533 L 2900 1533 L 2900 1517 L 2967 1517 L 2967 1533 L 2983 1533 L 2983 1517 L 3067 1517 L 3067 1500 L 3183 1500 L 3183 1483 L 3200 1483 L 3200 1500 L 3217 1500 L 3217 1483 L 3267 1483 L 3267 1467 L 3317 1467 L 3317 1450 L 3367 1450 L 3367 1433 L 3433 1433 L 3433 1417 L 3450 1417 L 3450 1433 L 3467 1433 L 3467 1417 L 3517 1417 L 3517 1400 L 3567 1400 L 3567 1383 L 3633 1383 L 3633 1367 L 3717 1367 L 3717 1350 L 3783 1350 L 3783 1333 L 3817 1333 L 3817 1317 L 3850 1317 L 3850 1300 L 3883 1300 L 3883 1283 L 3917 1283 L 3917 1267 L 3933 1267 L 3933 1250 L 3950 1250 L 3950 1233 L 3983 1233 L 3983 1217 L 4000 1217 L 4000 1200 L 4017 1200 L 4017 1183 L 4033 1183 L 4033 1167 L 4050 1167 L 4050 1150 L 4083 1150 L 4083 1133 L 4100 1133 L 4100 1117 L 4117 1117 L 4117 1100 L 4133 1100 L 4133 1083 L 4167 1083 L 4167 1050 L 4200 1050 L 4200 1017 L 4217 1017 L 4217 1000 L 4233 1000 L 4233 983 L 4250 983 L 4250 967 L 4267 967 L 4267 950 L 4283 950 L 4283 933 L 4317 933 L 4317 917 L 4333 917 L 4333 900 L 4350 900 L 4350 883 L 4367 883 L 4367 867 L 4383 867 L 4383 850 L 4400 850 L 4400 833 L 4433 833 L 4433 817 L 4450 817 L 4450 800 L 4467 800 L 4467 783 L 4500 783 L 4500 767 L 4533 767 L 4533 750 L 4550 750 L 4550 733 L 4483 733 Z M 3383 817 L 3383 817 L 3383 833 L 3400 833 L 3400 817 L 3383 817 Z M 1567 1167 L 1567 1167 L 1567 1183 L 1583 1183 L 1583 1167 L 1567 1167 Z M 2500 1233 L 2500 1233 L 2500 1250 L 2517 1250 L 2517 1233 L 2500 1233 Z M 2433 1250 L 2433 1250 L 2433 1267 L 2383 1267 L 2383 1283 L 2317 1283 L 2317 1300 L 2267 1300 L 2267 1317 L 2217 1317 L 2217 1367 L 2233 1367 L 2233 1350 L 2250 1350 L 2250 1367 L 2317 1367 L 2317 1350 L 2333 1350 L 2333 1333 L 2367 1333 L 2367 1317 L 2383 1317 L 2383 1300 L 2400 1300 L 2400 1317 L 2417 1317 L 2417 1300 L 2433 1300 L 2433 1283 L 2483 1283 L 2483 1267 L 2500 1267 L 2500 1250 L 2433 1250 Z M 2667 1283 L 2667 1283 L 2667 1300 L 2683 1300 L 2683 1283 L 2667 1283 Z M 50 1650 L 50 1650 L 50 1667 L 67 1667 L 67 1650 L 50 1650 Z M 17 1667 L 17 1667 L 17 1683 L 33 1683 L 33 1667 L 17 1667 Z M 683 2467 L 683 2467 L 683 2483 L 700 2483 L 700 2467 L 683 2467 Z M 1517 250 L 1517 250 L 1533 250 L 1533 267 L 1567 267 L 1567 283 L 1550 283 L 1550 317 L 1517 317 L 1517 350 L 1483 350 L 1483 333 L 1467 333 L 1467 317 L 1483 317 L 1483 283 L 1500 283 L 1500 267 L 1517 267 L 1517 250 Z" fill="rgb(253,253,253)" /><path d="M 1550 33 L 1550 33 L 1567 33 L 1567 100 L 1583 100 L 1583 117 L 1567 117 L 1567 133 L 1583 133 L 1583 183 L 1600 183 L 1600 200 L 1633 200 L 1633 183 L 1667 183 L 1667 167 L 1683 167 L 1683 183 L 1667 183 L 1667 217 L 1650 217 L 1650 250 L 1683 250 L 1683 267 L 1717 267 L 1717 283 L 1800 283 L 1800 300 L 1850 300 L 1850 317 L 1733 317 L 1733 333 L 1717 333 L 1717 317 L 1700 317 L 1700 333 L 1650 333 L 1650 367 L 1667 367 L 1667 400 L 1683 400 L 1683 417 L 1700 417 L 1700 450 L 1683 450 L 1683 433 L 1667 433 L 1667 417 L 1633 417 L 1633 400 L 1600 400 L 1600 417 L 1583 417 L 1583 433 L 1600 433 L 1600 450 L 1583 450 L 1583 533 L 1567 533 L 1567 550 L 1583 550 L 1583 567 L 1567 567 L 1567 600 L 1550 600 L 1550 533 L 1533 533 L 1533 517 L 1550 517 L 1550 500 L 1533 500 L 1533 433 L 1517 433 L 1517 383 L 1500 383 L 1500 400 L 1467 400 L 1467 417 L 1450 417 L 1450 433 L 1433 433 L 1433 450 L 1417 450 L 1417 433 L 1433 433 L 1433 400 L 1450 400 L 1450 333 L 1433 333 L 1433 317 L 1383 317 L 1383 300 L 1367 300 L 1367 317 L 1350 317 L 1350 300 L 1333 300 L 1333 317 L 1317 317 L 1317 300 L 1283 300 L 1283 283 L 1350 283 L 1350 267 L 1417 267 L 1417 250 L 1450 250 L 1450 200 L 1433 200 L 1433 167 L 1450 167 L 1450 183 L 1483 183 L 1483 200 L 1517 200 L 1517 183 L 1533 183 L 1533 133 L 1550 133 L 1550 117 L 1533 117 L 1533 100 L 1550 100 L 1550 33 Z M 1517 250 L 1517 250 L 1517 267 L 1500 267 L 1500 283 L 1483 283 L 1483 317 L 1467 317 L 1467 333 L 1483 333 L 1483 350 L 1517 350 L 1517 317 L 1550 317 L 1550 283 L 1567 283 L 1567 267 L 1533 267 L 1533 250 L 1517 250 Z M 1350 700 L 1350 700 L 1367 700 L 1367 717 L 1433 717 L 1433 733 L 1500 733 L 1500 750 L 1583 750 L 1583 767 L 1667 767 L 1667 800 L 1700 800 L 1700 833 L 1750 833 L 1750 850 L 1767 850 L 1767 867 L 1800 867 L 1800 883 L 1833 883 L 1833 900 L 1850 900 L 1850 917 L 1900 917 L 1900 933 L 1917 933 L 1917 950 L 1950 950 L 1950 967 L 1983 967 L 1983 983 L 2017 983 L 2017 1000 L 2050 1000 L 2050 1017 L 2067 1017 L 2067 1033 L 2117 1033 L 2117 1050 L 2133 1050 L 2133 1067 L 2167 1067 L 2167 1083 L 2217 1083 L 2217 1100 L 2250 1100 L 2250 1083 L 2267 1083 L 2267 1100 L 2283 1100 L 2283 1083 L 2317 1083 L 2317 1067 L 2383 1067 L 2383 1050 L 2433 1050 L 2433 1033 L 2483 1033 L 2483 1017 L 2550 1017 L 2550 1000 L 2600 1000 L 2600 983 L 2617 983 L 2617 1000 L 2633 1000 L 2633 983 L 2667 983 L 2667 967 L 2717 967 L 2717 983 L 2733 983 L 2733 967 L 2750 967 L 2750 983 L 2800 983 L 2800 1000 L 2817 1000 L 2817 1017 L 2867 1017 L 2867 1033 L 2883 1033 L 2883 1050 L 2933 1050 L 2933 1067 L 2967 1067 L 2967 1050 L 3017 1050 L 3017 1000 L 3033 1000 L 3033 950 L 3050 950 L 3050 933 L 3083 933 L 3083 950 L 3067 950 L 3067 1000 L 3050 1000 L 3050 1017 L 3067 1017 L 3067 1033 L 3050 1033 L 3050 1083 L 3033 1083 L 3033 1133 L 3000 1133 L 3000 1150 L 2983 1150 L 2983 1133 L 2933 1133 L 2933 1117 L 2900 1117 L 2900 1100 L 2867 1100 L 2867 1083 L 2833 1083 L 2833 1067 L 2800 1067 L 2800 1050 L 2750 1050 L 2750 1033 L 2717 1033 L 2717 1017 L 2683 1017 L 2683 1033 L 2633 1033 L 2633 1050 L 2583 1050 L 2583 1067 L 2550 1067 L 2550 1083 L 2517 1083 L 2517 1100 L 2500 1100 L 2500 1150 L 2517 1150 L 2517 1167 L 2500 1167 L 2500 1183 L 2333 1183 L 2333 1200 L 2283 1200 L 2283 1217 L 2233 1217 L 2233 1233 L 2150 1233 L 2150 1250 L 2100 1250 L 2100 1267 L 2083 1267 L 2083 1250 L 2067 1250 L 2067 1267 L 2050 1267 L 2050 1250 L 2000 1250 L 2000 1233 L 1983 1233 L 1983 1250 L 1967 1250 L 1967 1233 L 1900 1233 L 1900 1217 L 1783 1217 L 1783 1200 L 1767 1200 L 1767 1217 L 1750 1217 L 1750 1200 L 1667 1200 L 1667 1183 L 1600 1183 L 1600 1150 L 1617 1150 L 1617 1167 L 1633 1167 L 1633 1150 L 1850 1150 L 1850 1167 L 1883 1167 L 1883 1183 L 1933 1183 L 1933 1200 L 1950 1200 L 1950 1183 L 2000 1183 L 2000 1167 L 2017 1167 L 2017 1183 L 2100 1183 L 2100 1167 L 2050 1167 L 2050 1150 L 2017 1150 L 2017 1133 L 1983 1133 L 1983 1117 L 1950 1117 L 1950 1100 L 1933 1100 L 1933 1083 L 1917 1083 L 1917 1067 L 1900 1067 L 1900 1050 L 1883 1050 L 1883 1033 L 1850 1033 L 1850 1017 L 1833 1017 L 1833 1000 L 1800 1000 L 1800 983 L 1767 983 L 1767 967 L 1750 967 L 1750 950 L 1733 950 L 1733 933 L 1717 933 L 1717 917 L 1683 917 L 1683 900 L 1667 900 L 1667 883 L 1650 883 L 1650 867 L 1633 867 L 1633 850 L 1600 850 L 1600 833 L 1583 833 L 1583 817 L 1567 817 L 1567 800 L 1500 800 L 1500 783 L 1483 783 L 1483 767 L 1433 767 L 1433 750 L 1383 750 L 1383 733 L 1350 733 L 1350 700 Z M 4483 733 L 4483 733 L 4550 733 L 4550 750 L 4533 750 L 4533 767 L 4500 767 L 4500 783 L 4467 783 L 4467 800 L 4450 800 L 4450 817 L 4433 817 L 4433 833 L 4400 833 L 4400 850 L 4383 850 L 4383 867 L 4367 867 L 4367 883 L 4350 883 L 4350 900 L 4333 900 L 4333 917 L 4317 917 L 4317 933 L 4283 933 L 4283 950 L 4267 950 L 4267 967 L 4250 967 L 4250 983 L 4233 983 L 4233 1000 L 4217 1000 L 4217 1017 L 4200 1017 L 4200 1050 L 4167 1050 L 4167 1083 L 4133 1083 L 4133 1100 L 4117 1100 L 4117 1117 L 4100 1117 L 4100 1133 L 4083 1133 L 4083 1150 L 4050 1150 L 4050 1167 L 4033 1167 L 4033 1183 L 4017 1183 L 4017 1200 L 4000 1200 L 4000 1217 L 3983 1217 L 3983 1233 L 3950 1233 L 3950 1250 L 3933 1250 L 3933 1267 L 3917 1267 L 3917 1283 L 3883 1283 L 3883 1300 L 3850 1300 L 3850 1317 L 3817 1317 L 3817 1333 L 3783 1333 L 3783 1350 L 3717 1350 L 3717 1367 L 3633 1367 L 3633 1383 L 3567 1383 L 3567 1400 L 3517 1400 L 3517 1417 L 3467 1417 L 3467 1433 L 3450 1433 L 3450 1417 L 3433 1417 L 3433 1433 L 3367 1433 L 3367 1450 L 3317 1450 L 3317 1467 L 3267 1467 L 3267 1483 L 3217 1483 L 3217 1500 L 3200 1500 L 3200 1483 L 3183 1483 L 3183 1500 L 3067 1500 L 3067 1517 L 2983 1517 L 2983 1533 L 2967 1533 L 2967 1517 L 2900 1517 L 2900 1533 L 2833 1533 L 2833 1550 L 2750 1550 L 2750 1567 L 2650 1567 L 2650 1583 L 2567 1583 L 2567 1600 L 2550 1600 L 2550 1583 L 2533 1583 L 2533 1600 L 2450 1600 L 2450 1617 L 2367 1617 L 2367 1633 L 2300 1633 L 2300 1650 L 2267 1650 L 2267 1667 L 2217 1667 L 2217 1683 L 2167 1683 L 2167 1700 L 2083 1700 L 2083 1717 L 2033 1717 L 2033 1700 L 2000 1700 L 2000 1717 L 1983 1717 L 1983 1700 L 1833 1700 L 1833 1683 L 1817 1683 L 1817 1700 L 1800 1700 L 1800 1683 L 1783 1683 L 1783 1700 L 1733 1700 L 1733 1683 L 1717 1683 L 1717 1700 L 1600 1700 L 1600 1717 L 1583 1717 L 1583 1700 L 1567 1700 L 1567 1717 L 1500 1717 L 1500 1733 L 1483 1733 L 1483 1750 L 1467 1750 L 1467 1767 L 1450 1767 L 1450 1783 L 1433 1783 L 1433 1800 L 1417 1800 L 1417 1833 L 1400 1833 L 1400 1883 L 1383 1883 L 1383 1917 L 1367 1917 L 1367 1950 L 1350 1950 L 1350 1983 L 1333 1983 L 1333 2017 L 1317 2017 L 1317 2050 L 1300 2050 L 1300 2083 L 1283 2083 L 1283 2117 L 1267 2117 L 1267 2133 L 1250 2133 L 1250 2167 L 1233 2167 L 1233 2200 L 1217 2200 L 1217 2233 L 1200 2233 L 1200 2250 L 1183 2250 L 1183 2300 L 1167 2300 L 1167 2350 L 1150 2350 L 1150 2367 L 1117 2367 L 1117 2383 L 1100 2383 L 1100 2400 L 1067 2400 L 1067 2417 L 1033 2417 L 1033 2433 L 1017 2433 L 1017 2417 L 983 2417 L 983 2433 L 917 2433 L 917 2417 L 900 2417 L 900 2433 L 867 2433 L 867 2450 L 833 2450 L 833 2467 L 817 2467 L 817 2450 L 767 2450 L 767 2467 L 750 2467 L 750 2450 L 733 2450 L 733 2467 L 717 2467 L 717 2433 L 750 2433 L 750 2417 L 767 2417 L 767 2400 L 800 2400 L 800 2367 L 833 2367 L 833 2350 L 850 2350 L 850 2333 L 867 2333 L 867 2317 L 883 2317 L 883 2300 L 917 2300 L 917 2283 L 933 2283 L 933 2267 L 950 2267 L 950 2250 L 983 2250 L 983 2217 L 1000 2217 L 1000 2200 L 1017 2200 L 1017 2167 L 1033 2167 L 1033 2133 L 1050 2133 L 1050 2083 L 1067 2083 L 1067 2067 L 1083 2067 L 1083 2033 L 1100 2033 L 1100 2000 L 1117 2000 L 1117 1950 L 1133 1950 L 1133 1917 L 1150 1917 L 1150 1883 L 1167 1883 L 1167 1833 L 1183 1833 L 1183 1783 L 1200 1783 L 1200 1750 L 1217 1750 L 1217 1700 L 1233 1700 L 1233 1650 L 1250 1650 L 1250 1617 L 1267 1617 L 1267 1567 L 1283 1567 L 1283 1533 L 1300 1533 L 1300 1517 L 1317 1517 L 1317 1500 L 1350 1500 L 1350 1483 L 1367 1483 L 1367 1467 L 1350 1467 L 1350 1450 L 1333 1450 L 1333 1433 L 1300 1433 L 1300 1417 L 1283 1417 L 1283 1400 L 1217 1400 L 1217 1417 L 1183 1417 L 1183 1433 L 1150 1433 L 1150 1450 L 1117 1450 L 1117 1467 L 1083 1467 L 1083 1483 L 1050 1483 L 1050 1500 L 1017 1500 L 1017 1517 L 983 1517 L 983 1533 L 950 1533 L 950 1550 L 900 1550 L 900 1567 L 867 1567 L 867 1583 L 817 1583 L 817 1600 L 767 1600 L 767 1617 L 733 1617 L 733 1633 L 700 1633 L 700 1650 L 650 1650 L 650 1667 L 617 1667 L 617 1683 L 583 1683 L 583 1700 L 550 1700 L 550 1717 L 533 1717 L 533 1733 L 500 1733 L 500 1750 L 433 1750 L 433 1767 L 417 1767 L 417 1750 L 400 1750 L 400 1767 L 383 1767 L 383 1750 L 367 1750 L 367 1767 L 350 1767 L 350 1750 L 333 1750 L 333 1767 L 283 1767 L 283 1750 L 267 1750 L 267 1767 L 217 1767 L 217 1750 L 133 1750 L 133 1733 L 117 1733 L 117 1717 L 33 1717 L 33 1683 L 17 1683 L 17 1667 L 33 1667 L 33 1683 L 50 1683 L 50 1700 L 67 1700 L 67 1667 L 50 1667 L 50 1650 L 67 1650 L 67 1667 L 83 1667 L 83 1650 L 100 1650 L 100 1633 L 117 1633 L 117 1650 L 150 1650 L 150 1633 L 167 1633 L 167 1650 L 200 1650 L 200 1633 L 217 1633 L 217 1650 L 233 1650 L 233 1633 L 317 1633 L 317 1617 L 333 1617 L 333 1600 L 350 1600 L 350 1617 L 367 1617 L 367 1600 L 383 1600 L 383 1583 L 417 1583 L 417 1567 L 450 1567 L 450 1550 L 483 1550 L 483 1533 L 500 1533 L 500 1517 L 533 1517 L 533 1500 L 567 1500 L 567 1483 L 600 1483 L 600 1467 L 617 1467 L 617 1450 L 650 1450 L 650 1433 L 683 1433 L 683 1417 L 717 1417 L 717 1400 L 750 1400 L 750 1383 L 783 1383 L 783 1367 L 833 1367 L 833 1350 L 867 1350 L 867 1333 L 983 1333 L 983 1317 L 1000 1317 L 1000 1333 L 1017 1333 L 1017 1317 L 1083 1317 L 1083 1300 L 1283 1300 L 1283 1317 L 1383 1317 L 1383 1333 L 1400 1333 L 1400 1317 L 1417 1317 L 1417 1333 L 1483 1333 L 1483 1350 L 1583 1350 L 1583 1367 L 1600 1367 L 1600 1350 L 1617 1350 L 1617 1367 L 1733 1367 L 1733 1383 L 1750 1383 L 1750 1367 L 1767 1367 L 1767 1400 L 1733 1400 L 1733 1417 L 1717 1417 L 1717 1400 L 1700 1400 L 1700 1417 L 1633 1417 L 1633 1433 L 1583 1433 L 1583 1450 L 1533 1450 L 1533 1467 L 1483 1467 L 1483 1483 L 1450 1483 L 1450 1500 L 1417 1500 L 1417 1517 L 1433 1517 L 1433 1550 L 1450 1550 L 1450 1567 L 1500 1567 L 1500 1583 L 1517 1583 L 1517 1567 L 1533 1567 L 1533 1583 L 1550 1583 L 1550 1567 L 1800 1567 L 1800 1550 L 1817 1550 L 1817 1567 L 1833 1567 L 1833 1550 L 1850 1550 L 1850 1567 L 1867 1567 L 1867 1550 L 1900 1550 L 1900 1567 L 1917 1567 L 1917 1550 L 2050 1550 L 2050 1533 L 2033 1533 L 2033 1517 L 2017 1517 L 2017 1500 L 2000 1500 L 2000 1483 L 2017 1483 L 2017 1467 L 2033 1467 L 2033 1483 L 2067 1483 L 2067 1500 L 2150 1500 L 2150 1517 L 2200 1517 L 2200 1500 L 2217 1500 L 2217 1517 L 2233 1517 L 2233 1500 L 2250 1500 L 2250 1517 L 2283 1517 L 2283 1500 L 2300 1500 L 2300 1517 L 2317 1517 L 2317 1500 L 2367 1500 L 2367 1483 L 2383 1483 L 2383 1500 L 2400 1500 L 2400 1483 L 2467 1483 L 2467 1467 L 2483 1467 L 2483 1483 L 2500 1483 L 2500 1467 L 2533 1467 L 2533 1450 L 2583 1450 L 2583 1433 L 2617 1433 L 2617 1417 L 2650 1417 L 2650 1400 L 2683 1400 L 2683 1383 L 2717 1383 L 2717 1333 L 2700 1333 L 2700 1317 L 2683 1317 L 2683 1300 L 2667 1300 L 2667 1283 L 2683 1283 L 2683 1300 L 2717 1300 L 2717 1317 L 2733 1317 L 2733 1333 L 2750 1333 L 2750 1350 L 2800 1350 L 2800 1367 L 2817 1367 L 2817 1350 L 2833 1350 L 2833 1367 L 2850 1367 L 2850 1350 L 2867 1350 L 2867 1367 L 2883 1367 L 2883 1350 L 2917 1350 L 2917 1333 L 2967 1333 L 2967 1317 L 3000 1317 L 3000 1300 L 3033 1300 L 3033 1283 L 3050 1283 L 3050 1233 L 3033 1233 L 3033 1200 L 3017 1200 L 3017 1183 L 3050 1183 L 3050 1167 L 3067 1167 L 3067 1183 L 3083 1183 L 3083 1167 L 3100 1167 L 3100 1133 L 3083 1133 L 3083 1083 L 3117 1083 L 3117 1117 L 3167 1117 L 3167 1100 L 3183 1100 L 3183 1083 L 3167 1083 L 3167 1067 L 3183 1067 L 3183 1050 L 3200 1050 L 3200 1067 L 3217 1067 L 3217 1050 L 3233 1050 L 3233 1033 L 3217 1033 L 3217 1017 L 3233 1017 L 3233 983 L 3250 983 L 3250 950 L 3233 950 L 3233 917 L 3217 917 L 3217 900 L 3250 900 L 3250 917 L 3267 917 L 3267 933 L 3300 933 L 3300 950 L 3317 950 L 3317 933 L 3367 933 L 3367 917 L 3383 917 L 3383 900 L 3400 900 L 3400 833 L 3383 833 L 3383 817 L 3400 817 L 3400 833 L 3433 833 L 3433 867 L 3450 867 L 3450 900 L 3467 900 L 3467 983 L 3450 983 L 3450 1017 L 3433 1017 L 3433 1050 L 3417 1050 L 3417 1067 L 3400 1067 L 3400 1083 L 3383 1083 L 3383 1100 L 3367 1100 L 3367 1117 L 3350 1117 L 3350 1133 L 3333 1133 L 3333 1150 L 3317 1150 L 3317 1167 L 3283 1167 L 3283 1183 L 3233 1183 L 3233 1200 L 3200 1200 L 3200 1233 L 3233 1233 L 3233 1250 L 3250 1250 L 3250 1233 L 3267 1233 L 3267 1250 L 3283 1250 L 3283 1233 L 3400 1233 L 3400 1217 L 3417 1217 L 3417 1233 L 3433 1233 L 3433 1217 L 3533 1217 L 3533 1200 L 3550 1200 L 3550 1217 L 3567 1217 L 3567 1200 L 3683 1200 L 3683 1183 L 3717 1183 L 3717 1167 L 3733 1167 L 3733 1183 L 3750 1183 L 3750 1167 L 3767 1167 L 3767 1183 L 3783 1183 L 3783 1167 L 3833 1167 L 3833 1150 L 3867 1150 L 3867 1133 L 3883 1133 L 3883 1117 L 3917 1117 L 3917 1100 L 3950 1100 L 3950 1083 L 3983 1083 L 3983 1067 L 4000 1067 L 4000 1050 L 4033 1050 L 4033 1033 L 4050 1033 L 4050 1017 L 4067 1017 L 4067 1000 L 4100 1000 L 4100 983 L 4133 983 L 4133 967 L 4150 967 L 4150 950 L 4183 950 L 4183 933 L 4200 933 L 4200 917 L 4233 917 L 4233 900 L 4250 900 L 4250 883 L 4267 883 L 4267 867 L 4300 867 L 4300 850 L 4317 850 L 4317 833 L 4333 833 L 4333 817 L 4367 817 L 4367 800 L 4383 800 L 4383 783 L 4417 783 L 4417 767 L 4433 767 L 4433 750 L 4483 750 L 4483 733 Z M 3100 1167 L 3100 1167 L 3100 1183 L 3117 1183 L 3117 1167 L 3100 1167 Z M 1567 1167 L 1567 1167 L 1583 1167 L 1583 1183 L 1567 1183 L 1567 1167 Z M 2500 1233 L 2500 1233 L 2517 1233 L 2517 1250 L 2500 1250 L 2500 1267 L 2483 1267 L 2483 1283 L 2433 1283 L 2433 1300 L 2417 1300 L 2417 1317 L 2400 1317 L 2400 1300 L 2383 1300 L 2383 1317 L 2367 1317 L 2367 1333 L 2333 1333 L 2333 1350 L 2317 1350 L 2317 1367 L 2250 1367 L 2250 1350 L 2233 1350 L 2233 1367 L 2217 1367 L 2217 1317 L 2267 1317 L 2267 1300 L 2317 1300 L 2317 1283 L 2383 1283 L 2383 1267 L 2433 1267 L 2433 1250 L 2500 1250 L 2500 1233 Z M 683 2467 L 683 2467 L 700 2467 L 700 2483 L 683 2483 L 683 2467 Z" fill="rgb(11,11,11)" /></svg>